<svg xmlns="http://www.w3.org/2000/svg" width="300" height="400" viewBox="0 0 300 400">
  <defs>
    <linearGradient id="bodyGradient" x1="0%" y1="0%" x2="100%" y2="100%">
      <stop offset="0%" stop-color="#4da6ff" />
      <stop offset="100%" stop-color="#2a7dd9" />
    </linearGradient>
    <linearGradient id="screenGradient" x1="0%" y1="0%" x2="100%" y2="100%">
      <stop offset="0%" stop-color="#0a0e23" />
      <stop offset="100%" stop-color="#1a1f3d" />
    </linearGradient>
    <filter id="glow" x="-20%" y="-20%" width="140%" height="140%">
      <feGaussianBlur stdDeviation="3" result="blur" />
      <feComposite in="SourceGraphic" in2="blur" operator="over" />
    </filter>
  </defs>
  
  <!-- Robot Body -->
  <rect x="75" y="150" width="150" height="180" rx="20" ry="20" fill="url(#bodyGradient)" />
  
  <!-- Robot Head -->
  <rect x="85" y="70" width="130" height="100" rx="15" ry="15" fill="url(#bodyGradient)" />
  
  <!-- Robot Screen/Face -->
  <rect x="100" y="85" width="100" height="70" rx="10" ry="10" fill="url(#screenGradient)" stroke="#4da6ff" stroke-width="2" />
  
  <!-- Robot Eyes -->
  <circle cx="125" cy="110" r="10" fill="#4da6ff" filter="url(#glow)" />
  <circle cx="175" cy="110" r="10" fill="#4da6ff" filter="url(#glow)" />
  
  <!-- Robot Smile -->
  <path d="M125 135 C 140 155, 160 155, 175 135" stroke="#4da6ff" stroke-width="4" fill="none" stroke-linecap="round" />
  
  <!-- Robot Antenna -->
  <line x1="150" y1="70" x2="150" y2="40" stroke="#4da6ff" stroke-width="3" />
  <circle cx="150" cy="35" r="8" fill="#4da6ff" filter="url(#glow)" />
  
  <!-- Robot Arms -->
  <rect x="45" y="180" width="30" height="100" rx="10" ry="10" fill="url(#bodyGradient)" />
  <rect x="225" y="180" width="30" height="100" rx="10" ry="10" fill="url(#bodyGradient)" />
  
  <!-- Robot Hands -->
  <circle cx="60" cy="290" r="15" fill="#a5d8ff" />
  <circle cx="240" cy="290" r="15" fill="#a5d8ff" />
  
  <!-- Robot Legs -->
  <rect x="95" y="330" width="30" height="60" rx="10" ry="10" fill="url(#bodyGradient)" />
  <rect x="175" y="330" width="30" height="60" rx="10" ry="10" fill="url(#bodyGradient)" />
  
  <!-- Robot Feet -->
  <ellipse cx="110" cy="395" rx="20" ry="10" fill="#a5d8ff" />
  <ellipse cx="190" cy="395" rx="20" ry="10" fill="#a5d8ff" />
  
  <!-- Robot Details -->
  <circle cx="150" cy="200" r="15" fill="#a5d8ff" />
  <circle cx="150" cy="200" r="10" fill="#4da6ff" />
  <circle cx="150" cy="200" r="5" fill="#a5d8ff" />
  
  <!-- Robot Buttons -->
  <circle cx="150" cy="240" r="8" fill="#a5d8ff" />
  <circle cx="150" cy="270" r="8" fill="#a5d8ff" />
  <circle cx="150" cy="300" r="8" fill="#a5d8ff" />
</svg>