<svg width="500" height="400" viewBox="0 0 500 400" fill="none" xmlns="http://www.w3.org/2000/svg">
  <!-- Background shape -->
  <rect width="500" height="400" rx="20" fill="#F5F7FA"/>
  
  <!-- Person with graduation cap -->
  <rect x="150" y="100" width="200" height="250" rx="10" fill="#6A3DE8" fill-opacity="0.1"/>
  
  <!-- Graduation cap -->
  <rect x="175" y="120" width="150" height="10" rx="5" fill="#6A3DE8"/>
  <rect x="220" y="80" width="60" height="40" rx="5" fill="#6A3DE8"/>
  <rect x="240" y="70" width="20" height="10" rx="5" fill="#6A3DE8"/>
  
  <!-- Books -->
  <rect x="175" y="250" width="150" height="20" rx="5" fill="#6A3DE8" fill-opacity="0.6"/>
  <rect x="175" y="280" width="150" height="20" rx="5" fill="#6A3DE8" fill-opacity="0.4"/>
  <rect x="175" y="310" width="150" height="20" rx="5" fill="#6A3DE8" fill-opacity="0.2"/>
  
  <!-- Decorative elements -->
  <circle cx="400" cy="100" r="30" fill="#6A3DE8" fill-opacity="0.2"/>
  <circle cx="100" cy="300" r="40" fill="#6A3DE8" fill-opacity="0.2"/>
  <circle cx="450" cy="350" r="20" fill="#6A3DE8" fill-opacity="0.2"/>
  <circle cx="50" cy="150" r="15" fill="#6A3DE8" fill-opacity="0.2"/>
  
  <!-- Abstract lines -->
  <line x1="50" y1="50" x2="100" y2="50" stroke="#6A3DE8" stroke-width="2" stroke-linecap="round"/>
  <line x1="400" y1="200" x2="450" y2="200" stroke="#6A3DE8" stroke-width="2" stroke-linecap="round"/>
  <line x1="75" y1="350" x2="125" y2="350" stroke="#6A3DE8" stroke-width="2" stroke-linecap="round"/>
</svg>